<svg xmlns="http://www.w3.org/2000/svg" width="72" height="73" fill="none"><rect width="64" height="64" x="4" y="4.9" fill="#9954F2" rx="32"/><rect width="64" height="64" x="4" y="4.9" fill="url(#a)" fill-opacity=".6" rx="32"/><rect width="64" height="64" x="4" y="4.9" fill="#fff" fill-opacity=".8" rx="32"/><rect width="68" height="68" x="2" y="2.9" stroke="#6701EF" stroke-opacity=".2" stroke-width="4" rx="34"/><g stroke="#6701EF" stroke-linecap="round" stroke-linejoin="round" stroke-width="3" clip-path="url(#b)"><path d="M36 49.5c6.904 0 12.5-5.596 12.5-12.5S42.904 24.5 36 24.5 23.5 30.096 23.5 37 29.096 49.5 36 49.5ZM36 37h16.25M36 37l-8.125-14.073M36 37l-8.125 14.073M36 24.5v-3.75m-10.825 10-3.248-1.875M23.5 37h-3.75m5.425 6.25-3.248 1.875M36 49.5v3.75m6.25-5.425 1.875 3.249m2.7-7.824 3.248 1.875M46.825 30.75l3.248-1.875m-7.823-2.7 1.875-3.248"/></g><defs><linearGradient id="a" x1="68" x2="4" y1="36.9" y2="36.9" gradientUnits="userSpaceOnUse"><stop stop-color="#B5DEF0" stop-opacity="0"/><stop offset="1" stop-color="#B5DEF0"/></linearGradient><clipPath id="b"><path fill="#fff" d="M16 17h40v40H16z"/></clipPath></defs></svg>