<svg xmlns="http://www.w3.org/2000/svg" width="72" height="73" fill="none"><rect width="64" height="64" x="4" y="4.9" fill="#9954F2" rx="32"/><rect width="64" height="64" x="4" y="4.9" fill="url(#a)" fill-opacity=".6" rx="32"/><rect width="64" height="64" x="4" y="4.9" fill="#fff" fill-opacity=".8" rx="32"/><rect width="68" height="68" x="2" y="2.9" stroke="#6701EF" stroke-opacity=".2" stroke-width="4" rx="34"/><g stroke="#6701EF" stroke-linecap="round" stroke-linejoin="round" stroke-width="3" clip-path="url(#b)"><path d="M27.25 24.5h17.5a7.5 7.5 0 0 1 7.5 7.5v15A1.25 1.25 0 0 1 51 48.25H21A1.25 1.25 0 0 1 19.75 47V32a7.5 7.5 0 0 1 7.5-7.5Zm-7.5 10h32.5M36 39.5V32m-8.125-7.5v23.75m16.25-23.75v23.75"/></g><defs><linearGradient id="a" x1="68" x2="4" y1="36.9" y2="36.9" gradientUnits="userSpaceOnUse"><stop stop-color="#B5DEF0" stop-opacity="0"/><stop offset="1" stop-color="#B5DEF0"/></linearGradient><clipPath id="b"><path fill="#fff" d="M16 17h40v40H16z"/></clipPath></defs></svg>