<svg xmlns="http://www.w3.org/2000/svg" width="72" height="73" fill="none"><rect width="64" height="64" x="4" y="4.9" fill="#9954F2" rx="32"/><rect width="64" height="64" x="4" y="4.9" fill="url(#a)" fill-opacity=".6" rx="32"/><rect width="64" height="64" x="4" y="4.9" fill="#fff" fill-opacity=".8" rx="32"/><rect width="68" height="68" x="2" y="2.9" stroke="#6701EF" stroke-opacity=".2" stroke-width="4" rx="34"/><g stroke="#6701EF" stroke-linecap="round" stroke-linejoin="round" stroke-width="3" clip-path="url(#b)"><path d="M45.86 34.639c3.75-3.75 3.985-8.21 3.868-10.2a1.25 1.25 0 0 0-1.167-1.167c-1.99-.117-6.447.114-10.2 3.867l-9.861 9.86 7.5 7.5 9.86-9.86Z"/><path d="M37.25 28.25h-9.633a1.25 1.25 0 0 0-.883.366l-5.367 5.367a1.25 1.25 0 0 0 .708 2.12L28.5 37m16.25-1.25v9.633c0 .33-.132.648-.366.883l-5.367 5.367a1.25 1.25 0 0 1-2.12-.708L36 44.5m-5.881 2.958c-1.064 1.448-3.314 3.292-7.869 3.292 0-4.555 1.844-6.805 3.292-7.869"/></g><defs><linearGradient id="a" x1="68" x2="4" y1="36.9" y2="36.9" gradientUnits="userSpaceOnUse"><stop stop-color="#B5DEF0" stop-opacity="0"/><stop offset="1" stop-color="#B5DEF0"/></linearGradient><clipPath id="b"><path fill="#fff" d="M16 17h40v40H16z"/></clipPath></defs></svg>