<svg xmlns="http://www.w3.org/2000/svg" width="72" height="73" fill="none"><rect width="64" height="64" x="4" y="4.2" fill="#9954F2" rx="32"/><rect width="64" height="64" x="4" y="4.2" fill="url(#a)" fill-opacity=".6" rx="32"/><rect width="64" height="64" x="4" y="4.2" fill="#fff" fill-opacity=".8" rx="32"/><rect width="68" height="68" x="2" y="2.2" stroke="#6701EF" stroke-opacity=".2" stroke-width="4" rx="34"/><g stroke="#6701EF" stroke-linecap="round" stroke-linejoin="round" stroke-width="3" clip-path="url(#b)"><path d="M36 39.75 49.75 26M26 39.75a10 10 0 0 1 11.102-9.94"/><path d="M51.03 33.56a16.325 16.325 0 0 1 .298 11.601 1.25 1.25 0 0 1-1.183.84H21.853a1.259 1.259 0 0 1-1.183-.846 16.263 16.263 0 0 1-.92-5.531c.069-8.936 7.458-16.204 16.406-16.124 2.073.017 4.124.431 6.04 1.22"/></g><defs><linearGradient id="a" x1="68" x2="4" y1="36.2" y2="36.2" gradientUnits="userSpaceOnUse"><stop stop-color="#B5DEF0" stop-opacity="0"/><stop offset="1" stop-color="#B5DEF0"/></linearGradient><clipPath id="b"><path fill="#fff" d="M16 16h40v40H16z"/></clipPath></defs></svg>